<svg xmlns="http://www.w3.org/2000/svg" viewBox="0 0 1280 720" role="img" aria-labelledby="title desc">
  <title id="title">Data science dashboard illustration</title>
  <desc id="desc">Neon analytics dashboards, data pipelines, and prediction charts.</desc>
  <defs><radialGradient id="bg" cx="55%" cy="35%" r="75%"><stop stop-color="#164e63"/><stop offset=".5" stop-color="#071526"/><stop offset="1" stop-color="#030712"/></radialGradient><filter id="glow"><feGaussianBlur stdDeviation="3" result="b"/><feMerge><feMergeNode in="b"/><feMergeNode in="SourceGraphic"/></feMerge></filter></defs>
  <rect width="1280" height="720" fill="url(#bg)"/>
  <g transform="translate(100 90)" filter="url(#glow)">
    <rect width="1080" height="540" rx="34" fill="#08111f" stroke="#60a5fa" stroke-width="3"/>
    <rect x="42" y="48" width="290" height="190" rx="18" fill="#0f213f" stroke="#1d4ed8"/>
    <rect x="374" y="48" width="320" height="190" rx="18" fill="#0f213f" stroke="#1d4ed8"/>
    <rect x="736" y="48" width="302" height="420" rx="18" fill="#0f213f" stroke="#1d4ed8"/>
    <rect x="42" y="278" width="652" height="190" rx="18" fill="#0f213f" stroke="#1d4ed8"/>
    <g fill="#60a5fa"><rect x="86" y="170" width="34" height="40"/><rect x="136" y="126" width="34" height="84"/><rect x="186" y="88" width="34" height="122"/><rect x="236" y="142" width="34" height="68"/></g>
    <polyline points="414,182 466,132 520,154 574,94 648,118" fill="none" stroke="#38bdf8" stroke-width="7" stroke-linecap="round" stroke-linejoin="round"/>
    <g fill="none" stroke="#93c5fd" stroke-width="4"><circle cx="887" cy="168" r="72"/><path d="M887 96v72h72"/></g>
    <g stroke="#60a5fa" stroke-width="5" fill="none"><path d="M90 410h520"/><path d="M90 360h180l46-42 70 74 82-100 142 112"/></g>
    <g fill="#bfdbfe" font-family="Sora, Arial" font-weight="700"><text x="70" y="88" font-size="22">KPIs</text><text x="402" y="88" font-size="22">Model Drift</text><text x="770" y="88" font-size="22">Segments</text><text x="72" y="322" font-size="22">Pipeline Health</text></g>
  </g>
</svg>
